<?xml version="1.0" standalone="no"?>
<!DOCTYPE svg PUBLIC "-//W3C//DTD SVG 20010904//EN"
 "http://www.w3.org/TR/2001/REC-SVG-20010904/DTD/svg10.dtd">
<svg version="1.0" xmlns="http://www.w3.org/2000/svg"
 width="475.000000pt" height="475.000000pt" viewBox="0 0 475.000000 475.000000"
 preserveAspectRatio="xMidYMid meet">
<metadata>
Created by potrace 1.14, written by Peter Selinger 2001-2017
</metadata>
<g transform="translate(0.000000,475.000000) scale(0.100000,-0.100000)"
fill="#000000" stroke="none">
<path d="M1195 4623 c-84 -21 -124 -126 -78 -204 22 -37 53 -51 204 -93 158
-43 353 -115 538 -197 l144 -64 -624 -5 -624 -5 -42 -28 c-24 -15 -55 -46 -70
-70 l-28 -42 -3 -1625 c-2 -1152 0 -1636 8 -1663 15 -50 66 -106 119 -130 42
-18 82 -19 1479 -19 l1435 0 101 -102 c55 -57 130 -135 166 -174 64 -71 66
-72 114 -72 130 0 185 126 103 234 -4 6 -28 34 -52 61 -25 28 -45 53 -45 56 0
4 14 12 30 19 46 19 97 77 110 126 10 33 12 419 12 1651 0 1481 -1 1611 -16
1648 -22 52 -61 93 -111 116 -38 18 -81 19 -760 19 -397 0 -725 4 -730 9 -6 4
-37 23 -70 41 -33 18 -85 46 -115 63 -166 90 -367 185 -570 269 -52 21 -104
43 -115 48 -32 15 -223 77 -324 105 -100 28 -154 36 -186 28z"/>
</g>
</svg>
